<svg id="Layer_1" data-name="Layer 1" xmlns="http://www.w3.org/2000/svg" viewBox="0 0 128 128"><title>humberger-cross</title><rect x="18.59" y="18.59" width="22.16" height="22.16" transform="translate(29.67 -12.29) rotate(45)" style="fill:#1a1a1a"/><rect x="35.75" y="35.75" width="22.16" height="22.16" transform="translate(46.84 -19.4) rotate(45)" style="fill:#1a1a1a"/><rect x="52.92" y="52.92" width="22.16" height="22.16" transform="translate(64 -26.51) rotate(45)" style="fill:#1a1a1a"/><rect x="70.08" y="70.08" width="22.16" height="22.16" transform="translate(81.16 -33.62) rotate(45)" style="fill:#1a1a1a"/><rect x="87.25" y="87.25" width="22.16" height="22.16" transform="translate(98.33 -40.73) rotate(45)" style="fill:#1a1a1a"/><rect x="87.25" y="18.59" width="22.16" height="22.16" transform="translate(188.84 -18.88) rotate(135)" style="fill:#1a1a1a"/><rect x="70.08" y="35.75" width="22.16" height="22.16" transform="translate(171.67 22.56) rotate(135)" style="fill:#1a1a1a"/><rect x="52.92" y="52.92" width="22.16" height="22.16" transform="translate(154.51 64) rotate(135)" style="fill:#1a1a1a"/><rect x="35.75" y="70.08" width="22.16" height="22.16" transform="translate(137.35 105.44) rotate(135)" style="fill:#1a1a1a"/><rect x="18.59" y="87.25" width="22.16" height="22.16" transform="translate(120.18 146.88) rotate(135)" style="fill:#1a1a1a"/><rect width="128" height="128" style="fill:none"/></svg>