<svg id="Layer_1" data-name="Layer 1" xmlns="http://www.w3.org/2000/svg" viewBox="0 0 128 128"><defs><style>.cls-1{fill:#1a1a1a;}.cls-2{fill:none;}</style></defs><title>humberger-checks</title><rect class="cls-1" x="18" y="18" width="24" height="24" transform="translate(-12.43 30) rotate(-45)"/><rect class="cls-1" x="52" y="18" width="24" height="24" transform="translate(-2.47 54.04) rotate(-45)"/><rect class="cls-1" x="86" y="18" width="24" height="24" transform="translate(7.49 78.08) rotate(-45)"/><rect class="cls-1" x="18" y="52" width="24" height="24" transform="translate(-36.47 39.96) rotate(-45)"/><rect class="cls-1" x="52" y="52" width="24" height="24" transform="translate(-26.51 64) rotate(-45)"/><rect class="cls-1" x="86" y="52" width="24" height="24" transform="translate(-16.55 88.04) rotate(-45)"/><rect class="cls-1" x="18" y="86" width="24" height="24" transform="translate(-60.51 49.92) rotate(-45)"/><rect class="cls-1" x="52" y="86" width="24" height="24" transform="translate(-50.55 73.96) rotate(-45)"/><rect class="cls-1" x="86" y="86" width="24" height="24" transform="translate(-40.59 98) rotate(-45)"/><rect class="cls-2" width="128" height="128"/></svg>